<svg xmlns="http://www.w3.org/2000/svg" viewBox="0 0 451.72 148.78"><defs><style>.cls-1{fill:#00a8e7;}</style></defs><g id="Capa_2" data-name="Capa 2"><g id="Layer_1" data-name="Layer 1"><path d="M104.91,50.23q15.8-15.51,42.08-15.5t42.21,15.5q15.3,15.08,15.3,39.42v57H179.08v-57q0-16.34-9.13-25.19-8.14-8-23-8t-23,8q-9,8.85-9,25.19v57H89.48v-57q0-16.34-9-25.19-8.14-8-22.95-8t-23,8q-9.14,8.85-9.14,25.19v57H0v-57Q0,65.31,15.31,50.23,31.1,34.72,57.52,34.73T99.6,50.23c.9.91,1.77,1.82,2.59,2.74Z"/><path class="cls-1" d="M289.79,34.73q29,0,46.53,14.86,17.78,15.28,17.77,42.17t-17.77,42.06q-17.54,15-46.53,15t-46.53-15q-17.77-15.18-17.77-42.06t17.77-42.17Q260.78,34.72,289.79,34.73ZM261.28,65q-10.36,8.86-10.37,26.78t10.37,26.67q10.13,8.64,28.51,8.64t28.51-8.64q10.36-8.87,10.37-26.67T318.3,65q-10-8.54-28.51-8.54T261.28,65Z"/><path d="M451.72,36.84V58.55h-4.08q-28,0-38.75,9.6-8.4,7.38-8.39,23.61v54.92H375.07V91.76q0-24.89,15.55-38.69,18.27-16.23,57-16.23Z"/><path class="cls-1" d="M271.52,0q6.75,0,10.83,3.46t4.14,9.81q0,6.26-4.14,9.79t-10.83,3.48q-6.75,0-10.83-3.48t-4.13-9.79q0-6.25,4.13-9.81T271.52,0Z"/><path class="cls-1" d="M307.52,0q6.75,0,10.83,3.46t4.14,9.81q0,6.26-4.14,9.79t-10.83,3.48q-6.75,0-10.83-3.48t-4.13-9.79q0-6.25,4.13-9.81T307.52,0Z"/></g></g></svg>